<?xml version="1.0"?>
<svg version="1.1" xmlns="http://www.w3.org/2000/svg" width="200px" height="64px" style="border: dashed 2px #aaa"><path fill="#" d="M27.2,41.38l0.56,2.94s1.26,0.7,3.08,0.7c2.044,0,4.284-1.008,4.284-2.996c0-4.312-10.108-2.52-10.108-9.212c0-3.92,3.136-5.572,6.636-5.572c2.66,0,5.908,1.12,5.908,1.12l-0.14,4.76l-1.82,0l-0.952-2.996s-1.428-0.504-2.968-0.504c-2.52,0-3.724,1.316-3.724,2.716c0,4.256,10.08,2.632,10.08,8.932c0,4.2-3.388,6.132-7.308,6.132c-2.94,0-5.768-1.12-5.768-1.12l0-4.9l2.24,0z M52.4168,27.24c5.46,0,8.68,3.78,8.68,9.8c0,6.16-3.78,10.36-9.24,10.36s-8.54-3.5-8.54-9.94c0-6.16,3.5-10.22,9.1-10.22z M52.2768,29.62c-3.64,0-5.74,2.38-5.74,7.7c0,5.04,1.82,7.7,5.46,7.7s5.88-2.52,5.88-7.84c0-5.04-1.96-7.56-5.6-7.56z M70.7176,44.88l2.66,0.56l0,1.68l-7.56,0l0-1.68l2.38-0.56l0-15.12l-2.38-0.56l0-1.54l5.88-0.14l9.24,15.652l0-13.412l-2.38-0.56l0-1.54l7.28-0.14l0,1.68l-2.38,0.56l0,17.36l-3.5,0l-9.24-15.428l0,13.188z M107.3584,29.76l0,9.38c0,5.18-1.82,8.26-7.7,8.26c-5.46,0-7.42-2.66-7.42-7.84l0-9.8l-2.38-0.56l0-1.54l7.98-0.14l0,1.68l-2.66,0.56l0,9.8c0,4.2,1.4,5.46,4.62,5.46c3.5,0,4.62-1.54,4.62-5.88l0-9.38l-2.66-0.56l0-1.54l7.98-0.14l0,1.68z"/><path fill="#" d="M112.98,48.8l0-2.38l2.1-0.84l0-13.216l-2.1-0.84l0-2.324l8.54-0.14l0,2.464l-2.1,0.84l0,4.816l1.904,0l4.676-7.98l5.18-0.14l0,2.464l-2.66,0.784l-3.668,6.104l5.208,7.168l2.1,0.84l0,2.38l-8.54,0l0-2.38l1.68-0.84l-3.836-5.32l-2.044,0l0,5.32l2.1,0.84l0,2.38l-8.54,0z M141.49828,32.42l0,8.82c0,3.22,0.924,4.48,3.668,4.48c2.968,0,3.612-1.596,3.612-4.9l0-8.4l-2.184-0.84l0-2.38l8.624-0.14l0,2.52l-2.1,0.84l0,8.4c0,5.404-2.072,8.316-8.092,8.316c-5.628,0-7.868-2.492-7.868-7.896l0-8.82l-2.072-0.84l0-2.38l8.596-0.14l0,2.52z M159.12456,48.8l0-2.38l2.1-0.84l0-13.16l-2.1-0.84l0-2.38l7.224-0.14l4.2,9.324l4.396-9.184l6.72-0.14l0,2.52l-2.016,0.84l0,13.16l2.1,0.84l0,2.38l-8.344,0l0-2.38l2.184-0.84l0-10.528l-0.756,1.848l-3.164,6.58l-3.024,0.14l-3.22-6.636l-0.476-1.456l0,10.052l2.156,0.84l0,2.38l-7.98,0z M205.47884,46.42l0,2.38l-8.904,0l0-2.38l2.1-0.756l-0.672-2.044l-6.216,0l-0.7,2.016l2.184,0.784l0,2.38l-8.456,0l0-2.38l2.044-0.784l6.16-16.492l4.48-0.084l6.02,16.576z M197.07884,40.624l-2.1-6.636l-2.212,6.636l4.312,0z M208.54512,48.8l0-2.38l2.1-0.84l0-13.16l-2.1-0.84l0-2.38l6.44-0.14l2.128,0c4.592,0,7.28,1.904,7.28,5.712c0,2.632-1.26,4.34-3.164,5.292c0.308,0.364,0.728,0.896,1.176,1.82l1.876,3.836l1.904,0.7l0,2.38l-5.18,0l-2.352-5.18c-0.952-2.128-1.204-2.576-2.688-2.576l-0.98,0l0,4.536l2.016,0.84l0,2.38l-8.456,0z M214.98512,38.104l1.596,0c2.212,0,3.5-1.064,3.5-2.94c0-1.596-1.064-2.744-2.8-2.744l-2.296,0l0,5.684z"/></svg>
